<svg width="48" height="49" viewBox="0 0 48 49" fill="none" xmlns="http://www.w3.org/2000/svg">
<path d="M38.4657 43.6696C39.6049 43.6696 40.4955 44.5601 40.4955 45.6994C40.4955 46.2691 40.2548 46.7504 39.9258 47.1596C39.6049 47.5688 39.0353 47.7293 38.4657 47.7293H14.1156C12.9764 47.7293 12.0858 46.8387 12.0858 45.6994C12.0858 45.1298 12.3265 44.6404 12.6554 44.2392C13.0646 43.83 13.546 43.6696 14.1156 43.6696H38.4657Z" fill="white"/>
<path d="M24.7542 40.5806C25.5645 40.5806 26.2946 41.2305 26.2946 42.1211C26.2946 42.5302 26.1341 42.9314 25.8854 43.1721C25.6447 43.4128 25.2356 43.5813 24.8264 43.5813H5.50685C4.69652 43.5813 3.96643 42.9314 3.96643 42.0408C3.96643 41.6317 4.12688 41.2305 4.37559 40.9818C4.61628 40.7411 5.02546 40.4924 5.42661 40.4924L24.7462 40.5726L24.7542 40.5806Z" fill="#C2E3F7"/>
<path d="M40.4955 11.2002C40.442 11.2002 40.442 11.2002 40.4955 11.2002C34.4862 5.27919 26.1342 3.73072 18.5042 6.16973C16.314 6.89983 14.2039 7.87065 12.2543 9.25061C14.2841 8.44028 16.5546 8.84142 18.1753 10.3899C18.4962 10.7188 18.7449 11.0397 18.9054 11.3607C18.9054 11.4409 18.9856 11.4409 18.9856 11.5211C19.796 12.9813 19.8762 14.7705 19.2263 16.3911C18.9856 17.041 18.5765 17.6909 18.0068 18.1803C20.1971 15.99 23.6871 15.99 25.7972 18.1001C26.8563 19.1591 27.3376 20.5391 27.3376 21.911C27.3376 23.3712 26.768 24.7512 25.717 25.8904C27.9073 23.7001 31.3973 23.7001 33.5074 25.8102C34.5664 26.8612 35.0478 28.2412 35.0478 29.6212C35.0478 31.0814 34.4782 32.4613 33.3469 33.6006C33.9166 33.031 34.5664 32.6298 35.2163 32.3811C36.9172 31.7312 38.8668 31.8917 40.327 32.8705C40.5677 33.031 40.8966 33.2797 41.1373 33.5204C42.1964 34.5714 42.6777 35.9514 42.6777 37.3313C42.6777 38.0614 42.5173 38.7915 42.2686 39.4414C48.4383 30.5117 48.0291 18.8301 40.4794 11.2002H40.4955Z" fill="white"/>
<path d="M40.4955 11.2003C48.1254 18.8302 48.4463 30.4315 42.3648 39.3612C42.6858 38.7113 42.774 37.901 42.774 37.2511C42.774 35.8712 42.2846 34.4912 41.2336 33.4402C40.9929 33.1995 40.7442 32.9508 40.4233 32.7903C38.8828 31.7393 37.0134 31.5708 35.3125 32.3009L35.1521 32.2207C41.8915 24.0211 44.4027 15.2599 40.5115 11.2003H40.4955Z" fill="#C2E3F7"/>
<path d="M25.8052 18.1C23.6951 15.99 20.2051 15.9899 18.0148 18.1802C18.5844 17.6106 18.9856 17.041 19.2343 16.3911L19.3947 16.4713C27.5943 9.73197 36.4357 7.30097 40.4152 11.1922L25.7249 25.8824C26.8642 24.7431 27.3456 23.3631 27.3456 21.903C27.3456 20.523 26.8562 19.143 25.8052 18.092V18.1Z" fill="#C2E3F7"/>
<path d="M18.9054 11.3607C18.9054 11.4409 18.9856 11.4409 18.9856 11.5212C18.0951 15.3321 14.6853 18.2605 10.5454 18.2605C5.7556 18.2605 1.94464 14.3613 1.94464 9.65981C1.94464 4.95829 5.84385 1.05908 10.5454 1.05908C14.1156 1.05908 17.1163 3.16915 18.416 6.25001C16.2257 6.98011 14.1156 7.95089 12.166 9.33086C14.1959 8.52053 16.4664 8.92169 18.087 10.4701C18.408 10.7108 18.6567 11.0398 18.8974 11.3607H18.9054Z" fill="white"/>
<path d="M44.2262 4.38861C44.3867 4.54907 44.5552 4.79778 44.5552 5.11871C44.5552 5.3594 44.4749 5.68835 44.2262 5.84881C44.0658 6.00927 43.817 6.17776 43.4961 6.17776C42.9265 6.17776 42.4371 5.68834 42.4371 5.11871C42.4371 4.87802 42.5173 4.54907 42.766 4.38861C42.9265 4.22814 43.1752 4.06769 43.4961 4.06769C43.817 4.06769 44.0658 4.14791 44.2262 4.38861Z" fill="#0B93E2"/>
<path d="M35.4198 36.102L33.9845 37.5373L35.4198 38.9726L36.8551 37.5373L35.4198 36.102Z" fill="#0B93E2"/>
<path d="M27.9955 32.7903C28.156 32.9508 28.3165 33.1995 28.3165 33.5204C28.3165 33.8413 28.2362 34.09 27.9955 34.2505C27.8351 34.4109 27.5864 34.5714 27.2654 34.5714C26.6958 34.5714 26.2144 34.082 26.2144 33.5204C26.2144 33.2797 26.2946 32.9508 26.5353 32.7903C26.6958 32.6298 26.9445 32.4694 27.2654 32.4694C27.5864 32.4694 27.8351 32.5496 27.9955 32.7903Z" fill="#0B93E2"/>
<path d="M12.8239 22.6491C12.9844 22.8096 13.1449 23.0583 13.1449 23.3792C13.1449 23.6199 13.0646 23.9489 12.8239 24.1093C12.6635 24.2698 12.3345 24.35 12.0938 24.35C11.5242 24.35 11.0428 23.8606 11.0428 23.299C11.0428 23.0583 11.1231 22.7293 11.3638 22.5689C11.5242 22.4084 11.7729 22.248 12.0938 22.248C12.3345 22.3282 12.6635 22.4084 12.8239 22.6571V22.6491Z" fill="#0B93E2"/>
<path d="M6.73437 31.7393C6.89483 31.8997 7.05529 32.1484 7.05529 32.4694C7.05529 32.7903 6.97506 33.039 6.73437 33.1995C6.57391 33.3599 6.32519 33.5284 6.00427 33.5284C5.43463 33.5284 4.95325 33.039 4.95325 32.4694C4.95325 32.2287 5.03347 31.8997 5.27416 31.7393C5.43463 31.5788 5.68334 31.4103 6.00427 31.4103C6.24496 31.4906 6.57391 31.5708 6.73437 31.7393Z" fill="#0B93E2"/>
<path d="M3.97187 22.9766L2.53656 24.4119L3.97187 25.8472L5.40718 24.4119L3.97187 22.9766Z" fill="#0B93E2"/>
<path d="M19.3948 17.4502C19.0739 17.4502 18.8252 17.2897 18.5845 17.041C18.2636 16.6398 18.2635 15.99 18.7449 15.5808C22.8848 12.171 27.3457 9.74 31.2449 8.76118C35.465 7.62191 38.955 8.19154 41.1453 10.3818H41.2256C41.6347 10.791 41.6347 11.4409 41.2256 11.842C40.8164 12.2512 40.1665 12.2512 39.7654 11.842C36.2753 8.43224 27.9955 10.7028 20.1249 17.2014C19.8842 17.3619 19.6355 17.4421 19.3948 17.4421V17.4502Z" fill="#0B93E2"/>
<path d="M35.1441 33.2797C34.9034 33.2797 34.7349 33.1995 34.4942 33.039C34.0048 32.7181 33.9246 32.0682 34.3337 31.5788V31.4986C40.8244 23.5477 43.0949 15.3482 39.7734 11.8581C39.3642 11.4489 39.3642 10.7991 39.7734 10.3979C40.1826 9.98874 40.8324 9.98874 41.2336 10.3979C43.4239 12.5882 43.9935 15.998 42.8543 20.2984C41.8032 24.1976 39.3642 28.6584 35.9544 32.7983C35.7137 33.1272 35.465 33.2877 35.1441 33.2877V33.2797Z" fill="#0B93E2"/>
<path d="M40.4152 12.179C40.1745 12.179 39.9258 12.0988 39.6851 11.8581C39.2839 11.4489 39.2839 10.7991 39.6851 10.3979L41.8754 8.2076C42.2846 7.80645 42.9344 7.80645 43.3356 8.2076C43.7447 8.61678 43.7447 9.26665 43.3356 9.66781L41.1453 11.8581C40.9046 12.0988 40.6559 12.179 40.4152 12.179Z" fill="#0B93E2"/>
<path d="M11.0348 41.5595C10.7941 41.5595 10.5453 41.4793 10.3047 41.2306C9.89548 40.8214 9.89548 40.1795 10.3047 39.7703L39.6851 10.4701C40.0943 10.0609 40.7442 10.0609 41.1453 10.4701C41.5545 10.8793 41.5545 11.5211 41.1453 11.9303L11.7649 41.2306C11.6044 41.391 11.3557 41.5595 11.0348 41.5595Z" fill="#0B93E2"/>
<path d="M24.7541 44.6403C24.1845 44.6403 23.7031 44.1509 23.7031 43.5813C23.7031 43.0116 24.1925 42.5303 24.7541 42.5303C24.9146 42.5303 25.0751 42.45 25.0751 42.3698C25.1553 42.2896 25.2355 42.2093 25.2355 42.0489C25.2355 41.8082 24.9949 41.5595 24.7461 41.5595H5.51485C5.35439 41.5595 5.19394 41.6397 5.19394 41.7199C5.11371 41.8001 5.03347 41.8804 5.03347 42.0409C5.03347 42.2815 5.27417 42.5303 5.52289 42.5303H14.1236C14.6932 42.5303 15.1826 43.0197 15.1826 43.5813C15.1826 44.1429 14.6932 44.6403 14.1236 44.6403H5.52289C4.14292 44.6403 3.00363 43.501 3.00363 42.1211C3.00363 41.4712 3.24433 40.8213 3.73373 40.3319C4.22314 39.8425 4.87302 39.6018 5.52289 39.6018H24.7541C26.1341 39.6018 27.2734 40.7411 27.2734 42.1211C27.2734 42.7709 27.0327 43.4208 26.5433 43.9102C26.0539 44.3996 25.4923 44.6403 24.7541 44.6403Z" fill="#0B93E2"/>
<path d="M38.4656 48.7H14.1156C12.4147 48.7 11.0347 47.3201 11.0347 45.6192C11.0347 44.8089 11.3556 44.0787 11.9253 43.4289C12.4949 42.8592 13.225 42.5383 14.1156 42.5383H38.4656C40.1665 42.5383 41.5464 43.9183 41.5464 45.6192C41.5464 46.4295 41.2255 47.1596 40.6559 47.8095C40.006 48.3791 39.2759 48.7 38.4656 48.7ZM14.1156 44.6404C13.8749 44.6404 13.6262 44.7206 13.3855 44.9613C13.225 45.1217 13.0646 45.4507 13.0646 45.6914C13.0646 46.261 13.554 46.7424 14.1236 46.7424H38.4736C38.7143 46.7424 38.963 46.6622 39.2037 46.4215C39.3642 46.261 39.5246 45.9321 39.5246 45.6914C39.5246 45.1218 39.0352 44.6323 38.4736 44.6323H14.1236L14.1156 44.6404Z" fill="#0B93E2"/>
<path d="M10.5453 19.3196C5.26616 19.3196 0.885559 15.0192 0.885559 9.65978C0.885559 4.30037 5.26616 0 10.5453 0C14.3563 0 17.8463 2.27055 19.3948 5.76058C19.6355 6.24999 19.3948 6.89985 18.9054 7.06031C18.416 7.301 17.7661 7.0603 17.6056 6.57089C16.3861 3.81096 13.6262 2.02183 10.6256 2.02183C6.40544 2.02183 2.99563 5.43164 2.99563 9.65177C2.99563 13.8719 6.40544 17.2817 10.6256 17.2817C14.1958 17.2817 17.2767 14.7624 18.0148 11.3607C18.1753 10.791 18.6647 10.4701 19.2343 10.6306C19.804 10.791 20.1249 11.2804 19.9644 11.8501C19.475 13.9601 18.3438 15.8295 16.6348 17.2095C14.9339 18.5092 12.7356 19.3196 10.5453 19.3196Z" fill="#0B93E2"/>
<path d="M42.2846 40.4202C42.1241 40.4202 41.9637 40.4202 41.7952 40.2597C41.3058 40.0191 41.1453 39.4494 41.3058 38.96C41.5465 38.3904 41.6347 37.8207 41.6347 37.1709C41.6347 36.0316 41.1453 34.9003 40.335 34.09C40.1745 33.9295 39.9258 33.6808 39.6851 33.5204C38.955 33.031 38.1447 32.7903 37.2541 32.7903C36.6845 32.7903 36.0346 32.8705 35.5532 33.1192C34.9836 33.3599 34.4942 33.6889 34.0128 34.1702C33.6036 34.5794 32.9618 34.5794 32.5526 34.1702C32.1434 33.7611 32.1434 33.1192 32.5526 32.71C33.4432 31.8195 33.9326 30.6802 33.9326 29.4607C33.9326 28.3214 33.4432 27.1902 32.6328 26.3798C31.8225 25.5695 30.6832 25.0801 29.552 25.0801C28.3325 25.0801 27.2012 25.5695 26.3027 26.4601C25.8935 26.8612 25.2516 26.8612 24.8425 26.4601C24.4333 26.0509 24.4333 25.401 24.8425 24.9999C25.733 24.1093 26.2224 22.97 26.2224 21.7505C26.2224 20.6113 25.733 19.48 24.9227 18.6697C24.1124 17.8593 22.9731 17.3699 21.8418 17.3699C20.6223 17.3699 19.4911 17.8593 18.5925 18.7499C18.1833 19.1591 17.5334 19.1591 17.1323 18.7499C16.7231 18.3407 16.7231 17.6909 17.1323 17.2897C17.5415 16.8805 17.8624 16.3189 18.1031 15.8295C18.6727 14.5298 18.5925 13.0696 17.8624 11.8501C17.8624 11.7698 17.7822 11.7698 17.7822 11.6896C17.6217 11.3607 17.373 11.12 17.1323 10.8793C16.3219 10.069 15.1827 9.57953 14.0514 9.57953C13.4818 9.57953 12.8319 9.65976 12.3505 9.90848C11.8611 10.0689 11.2915 9.90849 11.0508 9.41908C10.8101 8.92968 10.9706 8.36806 11.3717 8.11935C13.4016 6.73938 15.5918 5.68033 17.8624 4.95023C20.2934 4.22013 22.7324 3.81094 25.1634 3.81094C31.0844 3.81094 36.6043 6.08148 40.7442 10.1412C44.6434 14.0404 46.8337 18.9023 47.0744 24.4222C47.3953 29.7014 45.7746 35.0528 42.6938 39.6018C42.9345 40.2517 42.6135 40.4122 42.2846 40.4122V40.4202ZM37.4146 30.9289C38.7143 30.9289 39.9338 31.3381 40.9849 31.9799C41.3058 32.2206 41.6347 32.4693 41.9556 32.7903C42.6857 33.5204 43.2554 34.4109 43.4961 35.3897C47.2268 27.3587 45.9351 18.1803 39.8456 12.0185L39.7654 11.9383C35.9544 8.20759 30.9159 6.17776 25.5645 6.17776C23.294 6.17776 21.0155 6.49868 18.8252 7.22878C18.0148 7.46947 17.1243 7.79841 16.3059 8.19956C17.2767 8.52851 18.1753 9.0099 18.9054 9.74C19.2263 10.0609 19.5552 10.4701 19.7959 10.8793C19.7959 10.9595 19.8762 11.0397 19.8762 11.0397C20.6865 12.4197 20.9272 14.1206 20.526 15.6691C21.0154 15.5888 21.4968 15.5086 21.9862 15.5086C23.6871 15.5086 25.3158 16.1584 26.5273 17.3779C27.7468 18.5975 28.3967 20.2181 28.3967 21.919C28.3967 22.4084 28.3164 22.8898 28.2362 23.3792C28.7256 23.299 29.207 23.2187 29.6964 23.2187C31.3973 23.2187 33.026 23.8686 34.2375 25.0881C35.457 26.3076 36.1068 27.9283 36.1068 29.6292C36.1068 30.1186 36.0266 30.6 35.9464 31.0894C36.3555 30.9289 36.9172 30.9289 37.4066 30.9289H37.4146Z" fill="#0B93E2"/>
</svg>
