<svg width="21" height="21" viewBox="0 0 21 21" fill="none" xmlns="http://www.w3.org/2000/svg">
<g clip-path="url(#clip0_10_5480)">
<path d="M10.5 21C10.5 21 18.375 13.5371 18.375 7.875C18.375 5.78642 17.5453 3.78338 16.0685 2.30653C14.5916 0.829685 12.5886 0 10.5 0C8.41142 0 6.40838 0.829685 4.93153 2.30653C3.45469 3.78338 2.625 5.78642 2.625 7.875C2.625 13.5371 10.5 21 10.5 21ZM10.5 11.8125C9.45571 11.8125 8.45419 11.3977 7.71577 10.6592C6.97734 9.92081 6.5625 8.91929 6.5625 7.875C6.5625 6.83071 6.97734 5.82919 7.71577 5.09077C8.45419 4.35234 9.45571 3.9375 10.5 3.9375C11.5443 3.9375 12.5458 4.35234 13.2842 5.09077C14.0227 5.82919 14.4375 6.83071 14.4375 7.875C14.4375 8.91929 14.0227 9.92081 13.2842 10.6592C12.5458 11.3977 11.5443 11.8125 10.5 11.8125Z" fill="#EE7D02"/>
</g>
<defs>
<clipPath id="clip0_10_5480">
<rect width="21" height="21" fill="white"/>
</clipPath>
</defs>
</svg>
