<svg width="21" height="21" viewBox="0 0 21 21" fill="none" xmlns="http://www.w3.org/2000/svg">
<path fill-rule="evenodd" clip-rule="evenodd" d="M1.3125 3.9375C1.3125 3.24131 1.58906 2.57363 2.08134 2.08134C2.57363 1.58906 3.24131 1.3125 3.9375 1.3125H5.138C5.8905 1.3125 6.54675 1.82525 6.72962 2.555L7.6965 6.42513C7.77485 6.73837 7.75903 7.06778 7.65101 7.37207C7.54298 7.67636 7.34757 7.94202 7.08925 8.13575L5.95788 8.9845C5.83975 9.07287 5.81437 9.20237 5.84763 9.2925C6.34146 10.6355 7.12127 11.8551 8.13308 12.8669C9.14488 13.8787 10.3645 14.6585 11.7075 15.1524C11.7976 15.1856 11.9263 15.1602 12.0155 15.0421L12.8643 13.9107C13.058 13.6524 13.3236 13.457 13.6279 13.349C13.9322 13.241 14.2616 13.2251 14.5749 13.3035L18.445 14.2704C19.1747 14.4532 19.6875 15.1095 19.6875 15.8629V17.0625C19.6875 17.7587 19.4109 18.4264 18.9187 18.9187C18.4264 19.4109 17.7587 19.6875 17.0625 19.6875H15.0938C7.483 19.6875 1.3125 13.517 1.3125 5.90625V3.9375Z" fill="#EE7D02"/>
</svg>
