<svg width="24" height="24" viewBox="0 0 24 24" fill="none" xmlns="http://www.w3.org/2000/svg">
<path fill-rule="evenodd" clip-rule="evenodd" d="M2.234 4.357C2.08251 4.53698 1.99962 4.76476 2 5V17C2 17.7957 2.31607 18.5587 2.87868 19.1213C3.44129 19.6839 4.20435 20 5 20H19C19.7957 20 20.5587 19.6839 21.1213 19.1213C21.6839 18.5587 22 17.7957 22 17V5.01C22.001 4.86099 21.9688 4.71362 21.9059 4.57856C21.8429 4.44349 21.7507 4.3241 21.636 4.229C21.4582 4.08174 21.2348 4.00079 21.004 4H3C2.85397 3.99978 2.70967 4.03164 2.5773 4.09332C2.44494 4.15501 2.32774 4.24503 2.234 4.357ZM4 7.414V17C4 17.2652 4.10536 17.5196 4.29289 17.7071C4.48043 17.8946 4.73478 18 5 18H19C19.2652 18 19.5196 17.8946 19.7071 17.7071C19.8946 17.5196 20 17.2652 20 17V7.414L12.707 14.707C12.5195 14.8945 12.2652 14.9998 12 14.9998C11.7348 14.9998 11.4805 14.8945 11.293 14.707L4 7.414Z" fill="#EE7D02"/>
</svg>
