<svg width="63" height="63" viewBox="0 0 63 63" fill="none" xmlns="http://www.w3.org/2000/svg">
<path d="M34.31 56.69V58.41C34.31 59.12 34.01 59.83 33.5 60.33C32.99 60.83 32.39 61.14 31.58 61.14C30.06 61.14 28.85 59.93 28.85 58.41V56.69C30.67 56.79 32.49 56.79 34.31 56.69Z" fill="white"/>
<path d="M4.67 28.77H6.39C6.19 30.59 6.19 32.31 6.39 34.13H4.67C3.96 34.13 3.25 33.83 2.75 33.32C2.24 32.82 1.94 32.21 1.94 31.4C2.04 29.98 3.26 28.77 4.67 28.77Z" fill="#C2E3F7"/>
<path d="M34.31 4.59V6.31C32.49 6.11 30.77 6.11 28.95 6.31V4.59C28.95 3.07 30.16 1.85999 31.68 1.85999C33.2 1.85999 34.31 3.17 34.31 4.59Z" fill="#C2E3F7"/>
<path d="M58.49 28.77C60.01 28.77 61.22 29.98 61.22 31.5C61.22 33.02 60.01 34.23 58.49 34.23H56.77C56.97 32.41 56.97 30.69 56.77 28.87L58.49 28.77Z" fill="#C2E3F7"/>
<path d="M18.33 35.75C18.94 37.77 20.15 39.7 21.77 41.31C23.39 42.93 25.31 44.04 27.33 44.75L18.73 53.35C16.91 52.34 15.19 51.02 13.67 49.4C12.15 47.78 10.84 46.16 9.71997 44.34L18.32 35.74L18.33 35.75Z" fill="#C2E3F7"/>
<path d="M56.77 34.23C56.37 37.77 55.25 41.21 53.43 44.35L44.83 35.75C45.74 32.92 45.74 29.98 44.83 27.15L53.43 18.55C55.25 21.69 56.36 25.13 56.77 28.67C56.87 30.59 56.87 32.41 56.77 34.23Z" fill="#C2E3F7"/>
<path d="M18.33 27.25C17.42 30.08 17.42 33.02 18.33 35.85L9.72999 44.45C7.90999 41.31 6.79999 37.77 6.38999 34.33C6.18999 32.51 6.18999 30.79 6.38999 28.97C6.78999 25.43 7.90999 21.99 9.72999 18.85C10.74 17.03 12.06 15.31 13.68 13.79C15.2 12.27 16.92 10.96 18.74 9.83997L27.34 18.44C25.32 19.05 23.4 20.26 21.78 21.88C20.16 23.3 19.05 25.22 18.34 27.24L18.33 27.25Z" fill="#C2E3F7"/>
<path d="M44.83 35.75L53.43 44.35C52.42 46.17 51.1 47.79 49.48 49.41C47.86 51.03 46.24 52.24 44.42 53.36C41.28 55.18 37.74 56.29 34.3 56.7C32.48 56.9 30.76 56.9 28.94 56.7C25.4 56.3 21.96 55.18 18.82 53.36L27.42 44.76C30.25 45.67 33.19 45.67 36.02 44.76C38.04 44.15 39.97 42.94 41.58 41.32C43 39.7 44.11 37.78 44.82 35.76L44.83 35.75Z" fill="#C2E3F7"/>
<path d="M49.48 13.59C51 15.11 52.31 16.83 53.43 18.65L44.83 27.25C44.22 25.23 43.01 23.3 41.39 21.69C39.77 20.07 37.85 18.96 35.83 18.25C33 17.34 30.06 17.34 27.23 18.25L18.63 9.65003C21.77 7.83003 25.21 6.72003 28.75 6.31003C30.57 6.11003 32.29 6.11003 34.11 6.31003C37.65 6.71003 41.09 7.83003 44.23 9.65003C46.25 10.76 47.97 12.08 49.49 13.6L49.48 13.59Z" fill="white"/>
<path d="M56.06 53.05C56.16 53.25 56.16 53.35 56.16 53.56C56.16 54.07 55.86 54.57 55.35 54.77H54.84C54.33 54.77 53.83 54.47 53.63 53.96C53.33 53.35 53.73 52.54 54.34 52.34C54.54 52.24 54.64 52.24 54.85 52.24C55.36 52.24 55.86 52.54 56.06 53.05Z" fill="#0B93E2"/>
<path d="M53.53 7.52997C53.63 7.72997 53.63 7.82998 53.63 8.03998C53.63 8.54998 53.33 9.04997 52.82 9.24997H52.31C51.8 9.24997 51.3 8.94997 51.1 8.43997C50.8 7.82997 51.2 7.01998 51.81 6.81998C52.01 6.71998 52.11 6.71997 52.32 6.71997C52.83 6.71997 53.33 7.01997 53.53 7.52997Z" fill="#0B93E2"/>
<path d="M50.5 56.89L51.41 59.22L49.08 60.23L48.17 57.9L50.5 56.89Z" fill="#0B93E2"/>
<path d="M40.89 35.34C40.99 35.54 40.99 35.64 40.99 35.85C40.99 36.36 40.69 36.86 40.18 37.06C39.98 37.16 39.88 37.16 39.67 37.16C39.16 37.16 38.66 36.86 38.46 36.35C38.16 35.74 38.56 34.93 39.17 34.73C39.37 34.53 39.47 34.53 39.68 34.53C40.19 34.53 40.69 34.83 40.89 35.34Z" fill="#0B93E2"/>
<path d="M15.5 56.08L16.41 58.41L14.08 59.32L13.17 56.99L15.5 56.08Z" fill="#0B93E2"/>
<path d="M13.07 6.20999C13.17 6.40999 13.17 6.51 13.17 6.72C13.17 7.23 12.87 7.72999 12.36 7.92999C12.16 8.02999 12.06 8.03 11.85 8.03C11.34 8.03 10.84 7.73 10.64 7.22C10.34 6.61 10.74 5.80001 11.35 5.60001C11.55 5.50001 11.65 5.5 11.86 5.5C12.37 5.5 12.87 5.69999 13.07 6.20999Z" fill="#0B93E2"/>
<path d="M8.00998 50.52C8.10998 50.72 8.10998 50.82 8.10998 51.03C8.10998 51.54 7.80998 52.04 7.29998 52.24C7.09998 52.34 6.99998 52.34 6.78998 52.34C6.27998 52.34 5.77998 52.04 5.57998 51.53C5.27998 50.92 5.67998 50.11 6.28998 49.91C6.48998 49.81 6.58998 49.81 6.79998 49.81C7.30998 49.71 7.80998 50.01 8.00998 50.52Z" fill="#0B93E2"/>
<path d="M6.38998 35.45H4.66998C3.65998 35.45 2.64998 35.05 1.83998 34.34C1.12998 33.53 0.72998 32.52 0.72998 31.51C0.72998 29.28 2.54998 27.56 4.67998 27.56H6.39998C6.79998 27.56 7.10998 27.76 7.30998 27.96C7.50998 28.26 7.70998 28.57 7.60998 28.97C7.40998 30.69 7.40998 32.41 7.60998 34.03C7.60998 34.43 7.50998 34.74 7.30998 35.04C7.10998 35.34 6.79998 35.44 6.39998 35.44L6.38998 35.45ZM4.66998 30.09C3.85998 30.09 3.24998 30.7 3.24998 31.51C3.24998 31.91 3.34998 32.22 3.64998 32.52C3.94998 32.82 4.25998 32.92 4.65998 32.92H4.95998V30.09H4.65998H4.66998Z" fill="#0B93E2"/>
<path d="M58.49 35.45H56.77C56.37 35.45 56.06 35.25 55.86 35.05C55.66 34.85 55.46 34.44 55.56 34.04C55.76 32.32 55.76 30.6 55.56 28.98C55.56 28.58 55.66 28.27 55.86 27.97C56.06 27.67 56.47 27.57 56.77 27.57H58.49C60.72 27.57 62.44 29.39 62.44 31.52C62.44 33.65 60.62 35.47 58.49 35.47V35.45ZM58.09 32.92H58.39C59.2 32.92 59.81 32.31 59.81 31.5C59.81 30.69 59.2 30.08 58.39 30.08H58.09C58.19 30.99 58.19 32 58.09 32.91V32.92Z" fill="#0B93E2"/>
<path d="M28.85 7.63C28.55 7.63 28.24 7.52999 28.04 7.32999C27.74 7.12999 27.64 6.72001 27.64 6.42001V4.70001C27.64 2.47001 29.46 0.75 31.59 0.75C33.72 0.75 35.54 2.57001 35.54 4.70001V6.42001C35.54 6.82001 35.34 7.12999 35.14 7.32999C34.94 7.52999 34.53 7.73 34.13 7.63C32.41 7.43001 30.69 7.43001 29.07 7.63H28.87H28.85ZM31.58 5H33V4.70001C33 3.89001 32.39 3.28 31.58 3.28C30.77 3.28 30.16 3.89001 30.16 4.70001V5H31.58Z" fill="#0B93E2"/>
<path d="M31.58 62.35C29.35 62.35 27.63 60.53 27.63 58.4V56.68C27.63 56.28 27.83 55.97 28.03 55.77C28.33 55.57 28.64 55.36 29.04 55.47C30.76 55.67 32.48 55.67 34.1 55.47C34.5 55.47 34.81 55.57 35.11 55.77C35.41 55.97 35.51 56.38 35.51 56.68V58.4C35.51 59.41 35.11 60.42 34.4 61.23C33.59 61.94 32.58 62.34 31.57 62.34L31.58 62.35ZM30.16 58V58.3C30.16 59.11 30.77 59.72 31.58 59.72C31.98 59.72 32.29 59.62 32.59 59.31C32.89 59.01 32.99 58.7 32.99 58.3V58C32.08 58.1 31.07 58.1 30.16 58Z" fill="#0B93E2"/>
<path d="M53.33 19.87C52.93 19.87 52.52 19.67 52.22 19.26C51.21 17.54 49.99 15.92 48.48 14.51C47.06 13.09 45.45 11.78 43.73 10.77C43.12 10.36 42.92 9.66002 43.33 9.05002C43.73 8.44002 44.44 8.24004 45.05 8.64004C46.97 9.75004 48.79 11.17 50.31 12.79C51.93 14.41 53.24 16.13 54.46 18.05C54.86 18.66 54.66 19.47 54.06 19.77C53.86 19.87 53.66 19.87 53.35 19.87H53.33Z" fill="#0B93E2"/>
<path d="M44.83 28.46C44.32 28.46 43.82 28.16 43.62 27.55C43.01 25.63 42 23.91 40.48 22.49C39.06 21.07 37.34 20.06 35.42 19.35C34.71 19.15 34.41 18.44 34.61 17.73C34.81 17.02 35.52 16.72 36.23 16.92C38.46 17.63 40.58 18.94 42.3 20.66C44.02 22.38 45.23 24.4 46.04 26.73C46.24 27.44 45.94 28.15 45.23 28.35C45.03 28.45 44.93 28.45 44.83 28.45V28.46Z" fill="#0B93E2"/>
<path d="M18.73 54.56C18.53 54.56 18.33 54.46 18.12 54.36C16.2 53.25 14.38 51.83 12.86 50.21C11.24 48.59 9.93 46.87 8.71 44.95C8.31 44.34 8.51 43.53 9.11 43.23C9.72 42.83 10.53 43.03 10.83 43.63C11.84 45.35 13.06 46.97 14.57 48.38C15.99 49.8 17.6 51.11 19.32 52.12C19.93 52.52 20.13 53.23 19.72 53.84C19.52 54.35 19.11 54.55 18.71 54.55L18.73 54.56Z" fill="#0B93E2"/>
<path d="M27.33 45.97C27.23 45.97 27.03 45.97 26.93 45.87C24.7 45.16 22.58 43.85 20.86 42.13C19.14 40.41 17.93 38.39 17.12 36.06C16.92 35.35 17.22 34.64 17.93 34.44C18.64 34.24 19.35 34.54 19.55 35.25C20.16 37.17 21.17 38.89 22.69 40.31C24.11 41.73 25.83 42.74 27.75 43.45C28.46 43.65 28.76 44.36 28.56 45.07C28.36 45.68 27.85 45.98 27.35 45.98L27.33 45.97Z" fill="#0B93E2"/>
<path d="M9.82996 19.87C9.62996 19.87 9.42996 19.7701 9.21996 19.6701C8.60996 19.2701 8.40996 18.5601 8.81996 17.9501C9.92996 16.0301 11.35 14.21 12.97 12.69C14.59 11.07 16.31 9.76005 18.23 8.54005C18.84 8.13005 19.65 8.34005 19.95 8.94005C20.35 9.55005 20.15 10.36 19.55 10.66C17.83 11.67 16.21 12.89 14.8 14.4C13.38 15.82 12.07 17.43 11.06 19.15C10.66 19.66 10.25 19.86 9.84996 19.86L9.82996 19.87Z" fill="#0B93E2"/>
<path d="M18.33 28.46C18.23 28.46 18.03 28.46 17.93 28.36C17.22 28.16 16.92 27.45 17.12 26.74C17.83 24.51 19.14 22.39 20.86 20.67C22.58 18.95 24.6 17.74 26.93 16.93C27.64 16.73 28.35 17.03 28.55 17.74C28.75 18.45 28.45 19.16 27.74 19.36C25.82 19.97 24.1 20.98 22.68 22.5C21.26 23.92 20.25 25.64 19.54 27.56C19.34 28.17 18.83 28.47 18.33 28.47V28.46Z" fill="#0B93E2"/>
<path d="M35.83 45.97C35.32 45.97 34.82 45.67 34.62 45.06C34.42 44.35 34.72 43.64 35.43 43.44C37.35 42.83 39.07 41.82 40.49 40.3C41.91 38.88 42.92 37.16 43.63 35.24C43.83 34.53 44.54 34.23 45.25 34.43C45.96 34.63 46.26 35.34 46.06 36.05C45.35 38.28 44.04 40.4 42.32 42.12C40.6 43.84 38.58 45.05 36.25 45.86C36.15 45.96 36.05 45.96 35.85 45.96L35.83 45.97Z" fill="#0B93E2"/>
<path d="M44.43 54.56C44.03 54.56 43.62 54.36 43.32 53.95C42.92 53.34 43.12 52.53 43.72 52.23C45.44 51.22 47.06 50 48.47 48.49C49.89 46.97 51.2 45.45 52.21 43.74C52.61 43.13 53.32 42.93 53.93 43.34C54.54 43.74 54.74 44.45 54.33 45.06C53.22 46.98 51.8 48.8 50.18 50.32C48.56 51.94 46.84 53.25 44.92 54.47C44.82 54.47 44.62 54.57 44.41 54.57L44.43 54.56Z" fill="#0B93E2"/>
<path d="M35.83 19.56C35.73 19.56 35.53 19.56 35.43 19.46C32.9 18.65 30.17 18.65 27.64 19.46C27.24 19.56 26.73 19.46 26.32 19.16L17.72 10.56C17.42 10.26 17.32 9.84999 17.32 9.54999C17.32 9.13999 17.62 8.84002 17.93 8.64002C21.17 6.72002 24.81 5.50001 28.55 5.10001C30.37 4.90001 32.29 4.90001 34.21 5.10001C38.05 5.50001 41.59 6.72002 44.83 8.64002C45.13 8.84002 45.44 9.14999 45.44 9.54999C45.44 9.94999 45.34 10.36 45.04 10.56L40.69 15.21C40.18 15.72 39.38 15.72 38.87 15.21C38.36 14.71 38.36 13.9 38.87 13.39L42.31 9.95002C39.78 8.63002 36.95 7.83 34.12 7.52C32.4 7.32 30.68 7.32 29.06 7.52C26.13 7.82 23.4 8.63002 20.87 9.95002L27.75 16.83C30.58 16.12 33.62 16.12 36.35 17.03C37.06 17.23 37.36 17.94 37.16 18.65C36.96 19.16 36.45 19.56 35.85 19.56H35.83Z" fill="#0B93E2"/>
<path d="M53.33 45.66C53.03 45.66 52.72 45.56 52.42 45.26L43.82 36.66C43.52 36.36 43.42 35.85 43.52 35.34C44.33 32.81 44.33 30.08 43.52 27.55C43.42 27.15 43.52 26.64 43.82 26.23L52.42 17.63C52.72 17.33 53.13 17.22 53.43 17.22C53.83 17.22 54.14 17.52 54.34 17.83C56.26 21.07 57.48 24.71 57.88 28.45C58.08 30.27 58.08 32.19 57.88 34.12C57.48 37.96 56.26 41.5 54.34 44.74C54.14 45.04 53.83 45.35 53.43 45.35C53.43 45.55 53.43 45.65 53.33 45.65V45.66ZM46.25 35.44L53.13 42.32C54.44 39.79 55.25 36.96 55.56 34.13C55.76 32.41 55.76 30.69 55.56 29.07C55.26 26.14 54.45 23.4 53.13 20.88L46.25 27.76C46.96 30.09 46.96 32.92 46.25 35.45V35.44Z" fill="#0B93E2"/>
<path d="M31.58 58.1C30.67 58.1 29.66 58.1 28.75 58C24.91 57.59 21.37 56.38 18.13 54.46C17.83 54.26 17.52 53.95 17.52 53.55C17.52 53.15 17.62 52.74 17.92 52.54L26.52 43.94C26.82 43.64 27.33 43.43 27.83 43.64C30.36 44.45 33.09 44.45 35.62 43.64C36.33 43.44 37.04 43.74 37.24 44.45C37.44 45.16 37.14 45.87 36.43 46.07C33.7 46.98 30.66 47.08 27.83 46.27L20.95 53.15C23.48 54.46 26.31 55.27 29.14 55.58C30.86 55.78 32.58 55.78 34.2 55.58C37.13 55.28 39.87 54.47 42.39 53.15L39.96 50.72C39.45 50.22 39.45 49.41 39.96 48.9C40.47 48.39 41.27 48.39 41.78 48.9L45.32 52.44C45.62 52.74 45.72 53.15 45.72 53.45C45.72 53.86 45.42 54.16 45.11 54.36C41.87 56.28 38.23 57.5 34.49 57.9C33.48 58 32.47 58.1 31.56 58.1H31.58Z" fill="#0B93E2"/>
<path d="M9.82997 45.66H9.62997C9.22997 45.66 8.91997 45.36 8.71997 45.05C6.79997 41.81 5.57997 38.17 5.17997 34.43C4.97997 32.61 4.97997 30.69 5.17997 28.76C5.57997 24.92 6.79997 21.38 8.71997 18.14C9.11997 17.53 9.82997 17.33 10.44 17.74C11.05 18.14 11.25 18.85 10.84 19.46C9.11997 22.39 8.00997 25.63 7.59997 29.07C7.39997 30.79 7.39997 32.51 7.59997 34.13C7.89997 37.06 8.70997 39.79 10.03 42.32L16.91 35.44C16.2 32.91 16.2 30.18 16.91 27.55L13.37 24.01C12.86 23.51 12.86 22.7 13.37 22.19C13.88 21.68 14.68 21.68 15.19 22.19L19.24 26.24C19.54 26.54 19.64 27.05 19.54 27.56C18.73 30.09 18.73 32.82 19.54 35.35C19.64 35.76 19.54 36.26 19.24 36.67L10.64 45.27C10.44 45.47 10.13 45.67 9.82997 45.67V45.66Z" fill="#0B93E2"/>
<path d="M39.67 32.61C38.96 32.61 38.35 32 38.35 31.3C38.35 27.46 35.21 24.32 31.37 24.32C30.66 24.32 30.06 23.71 30.06 23.01C30.06 22.31 30.67 21.69 31.37 21.69C36.63 21.69 40.88 25.94 40.88 31.2C40.98 32.11 40.37 32.62 39.67 32.62V32.61Z" fill="#0B93E2"/>
</svg>
