<svg width="48" height="48" viewBox="0 0 48 48" fill="none" xmlns="http://www.w3.org/2000/svg">
<path d="M4.65475 1.1817C5.93571 1.1817 6.93705 2.18299 6.93705 3.46395C6.93705 4.74491 5.93571 5.74625 4.65475 5.74625C3.37378 5.74625 2.3725 4.74491 2.3725 3.46395C2.3725 2.18299 3.37378 1.1817 4.65475 1.1817Z" fill="white"/>
<path d="M40.5217 33.1246C41.4328 33.1246 42.2537 33.8553 42.2537 34.8566C42.2537 35.7677 41.523 36.5886 40.5217 36.5886C39.6106 36.5886 38.7897 35.8579 38.7897 34.8566C38.8799 33.8553 39.6106 33.1246 40.5217 33.1246Z" fill="#C2E3F7"/>
<path d="M32.0331 42.2447C33.314 42.2447 34.3153 43.246 34.3153 44.5269C34.3153 45.1674 34.0447 45.7087 33.6749 46.1687C33.305 46.6288 32.5833 46.8092 32.0331 46.8092H6.93704C5.65608 46.8092 4.65474 45.8079 4.65474 44.5269C4.65474 43.8865 4.92538 43.3362 5.29524 42.8851C5.7553 42.4251 6.29656 42.2447 6.93704 42.2447H32.0331Z" fill="white"/>
<path d="M24.0045 37.6801C25.2854 37.6801 26.2868 38.6814 26.2868 39.9624C26.2868 40.6028 26.0161 41.1531 25.6463 41.6042C25.2855 42.0642 24.645 42.2447 24.0045 42.2447H14.8754C13.5944 42.2447 12.5931 41.2433 12.5931 39.9624C12.5931 39.3219 12.8637 38.7806 13.2336 38.3206C13.6936 37.8605 14.2349 37.6801 14.8754 37.6801H24.0045Z" fill="#C2E3F7"/>
<path d="M35.4159 26.2778L30.8513 29.7417H19.4399V22.904H30.8513L35.4159 26.2778Z" fill="#C2E3F7"/>
<path d="M43.4444 11.4926L38.8799 14.8664H19.4399V8.02853H38.8799L43.4444 11.4926Z" fill="#C2E3F7"/>
<path d="M19.4399 16.0571V22.904H5.7553L1.19075 19.4309L5.7553 16.0571H19.4399Z" fill="#C2E3F7"/>
<path d="M47.9098 46.3492C48 46.5296 48 46.6198 48 46.8093C48 47.2693 47.7294 47.7203 47.2693 47.9007C47.0889 47.9909 46.9987 47.991 46.8093 47.991C46.3492 47.991 45.8981 47.7204 45.7177 47.2603C45.4471 46.71 45.8079 45.9793 46.3582 45.7989C46.5386 45.7087 46.6289 45.7087 46.8183 45.7087C47.2784 45.7087 47.7294 45.8891 47.9098 46.3492Z" fill="#0B93E2"/>
<path d="M44.4458 21.2621C44.536 21.4426 44.536 21.5328 44.536 21.7222C44.536 22.1823 44.2654 22.6333 43.8053 22.8137C43.6249 22.9039 43.5347 22.9039 43.3452 22.9039C42.8852 22.9039 42.4342 22.6333 42.2537 22.1732C41.9831 21.623 42.3439 20.8923 42.8942 20.7119C43.0746 20.6217 43.1648 20.6216 43.3543 20.6216C43.8143 20.5314 44.2654 20.8021 44.4458 21.2621Z" fill="#0B93E2"/>
<path d="M34.2252 3.00393C34.3154 3.18434 34.3153 3.2745 34.3153 3.46394C34.3153 3.92401 34.0447 4.37507 33.5847 4.55549C33.4042 4.64569 33.3141 4.64567 33.1246 4.64567C32.6646 4.64567 32.2135 4.37505 32.0331 3.91499C31.7625 3.36471 32.1233 2.63403 32.6736 2.45361C32.854 2.3634 32.9442 2.36342 33.1336 2.36342C33.5937 2.27322 34.0447 2.54386 34.2252 3.00393Z" fill="#0B93E2"/>
<path d="M13.5561 8.07593L11.4375 8.92459L12.2862 11.0432L14.4048 10.1945L13.5561 8.07593Z" fill="#0B93E2"/>
<path d="M10.9604 27.0986L11.7812 29.2005L9.67936 30.0214L8.85849 27.9196L10.9604 27.0986Z" fill="#0B93E2"/>
<path d="M5.66515 31.573C5.75535 31.7534 5.75533 31.8436 5.75533 32.0331C5.75533 32.4931 5.48471 32.9441 5.02465 33.1246H4.65476C4.1947 33.1246 3.74369 32.8539 3.56327 32.3939C3.29265 31.8436 3.65344 31.1129 4.20372 30.9325C4.38413 30.8423 4.47435 30.8423 4.66379 30.8423C5.03364 30.8423 5.48473 31.1129 5.66515 31.573Z" fill="#0B93E2"/>
<path d="M38.8799 16.0571H19.4399C18.7995 16.0571 18.2582 15.5068 18.2582 14.8664C18.2582 14.2259 18.8085 13.6756 19.4399 13.6756H38.4199L41.4328 11.3933L38.4199 9.11105H19.4399C18.7995 9.11105 18.2582 8.56077 18.2582 7.92029C18.2582 7.27981 18.8085 6.73856 19.4399 6.73856H38.8799C39.1505 6.73856 39.3399 6.82881 39.6106 7.00923L44.1752 10.4732C44.4458 10.6536 44.6352 11.0235 44.6352 11.3843C44.6352 11.7452 44.4548 12.115 44.1752 12.2954L39.5204 15.7594C39.34 15.9398 39.0603 16.0301 38.8799 16.0301V16.0571Z" fill="#0B93E2"/>
<path d="M30.8513 30.8423H19.4399C18.7995 30.8423 18.2582 30.292 18.2582 29.6515C18.2582 29.0111 18.8085 28.56 19.4399 28.56H30.4815L33.4944 26.2778L30.4815 23.9954H19.4399C18.7995 23.9954 18.2582 23.4452 18.2582 22.8047C18.2582 22.1642 18.8085 21.614 19.4399 21.614H30.8513C31.122 21.614 31.3114 21.7042 31.582 21.8846L36.1466 25.3486C36.4172 25.529 36.6066 25.8989 36.6066 26.2597C36.6066 26.6205 36.4262 26.9904 36.1466 27.1708L31.582 30.6348C31.3114 30.725 31.122 30.8152 30.8513 30.8152V30.8423Z" fill="#0B93E2"/>
<path d="M19.4399 23.9955H5.75531C5.48469 23.9955 5.29525 23.9053 5.02462 23.7248L0.460072 20.2609C0.189447 20.0804 0 19.7106 0 19.3497C0 18.9889 0.180426 18.619 0.460072 18.4386L5.02462 14.9746C5.20504 14.7942 5.48469 14.704 5.75531 14.704H19.4399C20.0804 14.704 20.6307 15.2542 20.6307 15.8857C20.6307 16.5172 20.0804 17.0765 19.4399 17.0765H6.11617L3.10318 19.449L6.11617 21.7312H19.4399C20.0804 21.7312 20.6307 22.2815 20.6307 22.922C20.6307 23.5624 20.0804 24.0135 19.4399 24.0135V23.9955Z" fill="#0B93E2"/>
<path d="M19.4399 38.8708C18.7995 38.8708 18.2582 38.3206 18.2582 37.6891V5.74627C18.2582 5.10579 18.8085 4.56454 19.4399 4.56454C20.0714 4.56454 20.6307 5.11481 20.6307 5.74627V37.6891C20.6307 38.3296 20.0804 38.8708 19.4399 38.8708Z" fill="#0B93E2"/>
<path d="M24.0045 43.4354C23.364 43.4354 22.8137 42.8852 22.8137 42.2447C22.8137 41.6042 23.364 41.0539 24.0045 41.0539C24.2751 41.0539 24.5548 40.9637 24.8254 40.6931C25.096 40.4225 25.1862 40.1428 25.1862 39.8722C25.1862 39.2317 24.6359 38.6814 24.0045 38.6814H14.8754C14.6048 38.6814 14.3251 38.7716 14.0545 39.0422C13.8741 39.2227 13.6846 39.5925 13.6846 39.8632C13.6846 40.5037 14.2349 41.0449 14.8754 41.0449C15.5159 41.0449 16.0661 41.5952 16.0661 42.2357C16.0661 42.8761 15.5159 43.4264 14.8754 43.4264C12.963 43.4264 11.4114 41.8748 11.4114 39.9624C11.4114 39.0513 11.7722 38.2304 12.4127 37.4997C13.0532 36.8592 13.9643 36.4984 14.8754 36.4984H24.0045C25.9169 36.4984 27.4685 38.05 27.4685 39.9624C27.4685 40.8735 27.1077 41.6944 26.4672 42.4251C25.7365 43.0655 24.9156 43.4264 24.0045 43.4264V43.4354Z" fill="#0B93E2"/>
<path d="M32.0331 48H6.93703C5.02461 48 3.473 46.4484 3.473 44.536C3.473 43.6249 3.83388 42.804 4.47436 42.0733C5.11484 41.4328 6.02593 41.0719 6.93703 41.0719H32.0331C33.9455 41.0719 35.497 42.6235 35.497 44.536C35.497 45.4471 35.1272 46.268 34.4957 46.9986C33.765 47.6391 32.9442 48 32.0331 48ZM6.93703 43.4354C6.66641 43.4354 6.38678 43.5256 6.11616 43.7962C5.93574 43.9767 5.74627 44.3465 5.74627 44.6172C5.74627 45.2577 6.29655 45.8079 6.93703 45.8079H32.0331C32.3037 45.8079 32.5833 45.7177 32.8539 45.4471C33.0344 45.2667 33.2238 44.8968 33.2238 44.6261C33.2238 43.9857 32.6735 43.4444 32.0331 43.4444H6.93703V43.4354Z" fill="#0B93E2"/>
<path d="M40.5217 37.6801C38.9701 37.6801 37.6892 36.3992 37.6892 34.8476C37.6892 33.296 38.9701 32.015 40.5217 32.015C42.0733 32.015 43.3542 33.296 43.3542 34.8476C43.3542 36.3992 42.0733 37.6801 40.5217 37.6801ZM40.5217 34.3063C40.251 34.3063 39.9714 34.577 39.9714 34.8566C39.9714 35.1363 40.242 35.4069 40.5217 35.4069C40.8013 35.4069 41.072 35.1363 41.072 34.8566C41.072 34.577 40.8915 34.3063 40.5217 34.3063Z" fill="#0B93E2"/>
<path d="M4.65473 6.92801C2.74231 6.92801 1.19075 5.3764 1.19075 3.46398C1.19075 1.55156 2.74231 0 4.65473 0C6.56715 0 8.11876 1.55156 8.11876 3.46398C8.11876 5.3764 6.47694 6.92801 4.65473 6.92801ZM4.65473 2.36346C4.01425 2.36346 3.473 2.91374 3.473 3.55422C3.473 4.1947 4.02327 4.74498 4.65473 4.74498C5.28619 4.74498 5.84549 4.1947 5.84549 3.55422C5.75528 2.82353 5.205 2.36346 4.65473 2.36346Z" fill="#0B93E2"/>
<path d="M43.4444 48H32.0331C31.3926 48 30.8513 47.4497 30.8513 46.8092C30.8513 46.1688 31.4016 45.6275 32.0331 45.6275H43.4444C44.0849 45.6275 44.6262 46.1778 44.6262 46.8092C44.536 47.4497 43.9857 48 43.4444 48Z" fill="#0B93E2"/>
</svg>
