<svg width="54" height="53" viewBox="0 0 54 53" fill="none" xmlns="http://www.w3.org/2000/svg">
<path d="M7.12945 1.21613C8.44766 1.21613 9.47809 2.24655 9.47809 3.56476C9.47809 4.88296 8.44766 5.91339 7.12945 5.91339C5.81125 5.91339 4.78082 4.88296 4.78082 3.56476C4.78082 2.24655 5.81125 1.21613 7.12945 1.21613Z" fill="white"/>
<path d="M51.0851 10.6013C52.0227 10.6013 52.8674 11.3533 52.8674 12.3837C52.8674 13.3213 52.1155 14.1661 51.0851 14.1661C50.1475 14.1661 49.3027 13.4141 49.3027 12.3837C49.3027 11.3533 50.1475 10.6013 51.0851 10.6013Z" fill="#C2E3F7"/>
<path d="M52.4869 36.8076C52.6725 36.9933 52.8582 37.2811 52.8582 37.6524C52.8582 38.0237 52.7653 38.3115 52.4869 38.4972C52.3012 38.6828 52.0134 38.8778 51.6421 38.8778C50.983 38.8778 50.426 38.3115 50.426 37.6524C50.426 37.3739 50.5188 36.9933 50.7973 36.8076C50.983 36.622 51.2708 36.427 51.6421 36.427C52.0134 36.427 52.3012 36.6127 52.4869 36.8076Z" fill="#0B93E2"/>
<path d="M47.7989 36.8076C47.9845 36.9933 48.1702 37.2811 48.1702 37.6524C48.1702 38.0237 48.0774 38.3115 47.7989 38.4972C47.6132 38.6828 47.3254 38.8778 46.9541 38.8778C46.295 38.8778 45.7287 38.3115 45.7287 37.6524C45.7287 37.3739 45.8216 36.9933 46.1001 36.8076C46.2857 36.622 46.5735 36.427 46.9448 36.427C47.3161 36.427 47.6039 36.6127 47.7896 36.8076H47.7989Z" fill="#0B93E2"/>
<path d="M41.969 28.5457C42.1547 28.7313 42.3403 29.0191 42.3403 29.3905C42.3403 29.7618 42.2475 30.0496 41.969 30.2352C41.7834 30.4209 41.4956 30.6065 41.1243 30.6065C40.4652 30.6065 39.9082 30.0403 39.9082 29.3812C39.9082 29.1027 40.001 28.7221 40.2795 28.5364C40.4652 28.3507 40.7529 28.1651 41.1243 28.1651C41.4028 28.2579 41.7834 28.3507 41.969 28.5364V28.5457Z" fill="#0B93E2"/>
<path d="M34.9324 50.8902C35.1181 51.0759 35.3037 51.3636 35.3037 51.735C35.3037 52.0135 35.2109 52.394 34.9324 52.5797C34.7467 52.7654 34.459 52.9603 34.0876 52.9603C33.4285 52.9603 32.8716 52.3941 32.8716 51.735C32.8716 51.4565 32.9644 51.0759 33.2429 50.8902C33.4285 50.7045 33.7163 50.5096 34.0876 50.5096C34.459 50.5096 34.7467 50.6952 34.9324 50.8902Z" fill="#0B93E2"/>
<path d="M29.0098 2.71995C29.1955 2.90562 29.3811 3.1934 29.3811 3.56472C29.3811 3.93605 29.2883 4.22383 29.0098 4.40949C28.8241 4.59515 28.5364 4.7901 28.165 4.7901C27.5059 4.7901 26.9489 4.22382 26.9489 3.56472C26.9489 3.28623 27.0418 2.90562 27.3203 2.71995C27.5988 2.53429 27.7937 2.34863 28.165 2.34863C28.5364 2.34863 28.8241 2.53429 29.0098 2.71995Z" fill="#0B93E2"/>
<path d="M5.53272 28.5457C5.71838 28.7313 5.90404 29.0191 5.90404 29.3905C5.90404 29.7618 5.81121 30.0496 5.53272 30.2352C5.25422 30.4209 5.05928 30.6065 4.68795 30.6065C4.02885 30.6065 3.47186 30.0403 3.47186 29.3812C3.47186 29.1027 3.56469 28.7221 3.84319 28.5364C4.02885 28.3507 4.31663 28.1651 4.68795 28.1651C5.05928 28.2579 5.34706 28.3507 5.53272 28.5364V28.5457Z" fill="#0B93E2"/>
<path d="M2.06086 12.1052C2.24652 12.2909 2.43218 12.5787 2.43218 12.95C2.43218 13.2285 2.33935 13.6091 2.06086 13.7947C1.78236 13.9804 1.58742 14.1661 1.21609 14.1661C0.556988 14.1661 0 13.5998 0 12.95C0 12.6715 0.092831 12.2909 0.371325 12.1052C0.556988 11.9196 0.844765 11.7339 1.21609 11.7339C1.49458 11.8267 1.87519 11.9196 2.06086 12.1052Z" fill="#0B93E2"/>
<path d="M11.8267 35.3038C11.1676 35.3038 10.6013 34.7375 10.6013 34.0877V12.393C10.6013 8.82828 13.5163 5.91336 17.081 5.91336C18.7705 5.91336 20.46 6.57245 21.6854 7.78854C22.9015 9.01392 23.5606 10.6106 23.5606 12.393V16.524C23.5606 17.1831 22.9943 17.7494 22.3445 17.7494C21.6947 17.7494 21.1284 17.1831 21.1284 16.524V12.393C21.1284 11.2697 20.655 10.23 19.9031 9.47808C19.1511 8.72615 18.1207 8.2527 16.9881 8.2527C14.7323 8.2527 12.8572 10.1279 12.8572 12.3837V34.0784C12.95 34.7375 12.3837 35.2945 11.8267 35.2945V35.3038Z" fill="#0B93E2"/>
<path d="M34.0876 35.3038C33.4285 35.3038 32.8716 34.7375 32.8716 34.0877V12.393C32.8716 8.82828 35.7865 5.91336 39.3512 5.91336C41.0407 5.91336 42.7302 6.57245 43.9556 7.78854C45.1717 9.01392 45.8308 10.6106 45.8308 12.393V23.5699C45.8308 24.229 45.2645 24.7953 44.6054 24.7953C43.9463 24.7953 43.3893 24.229 43.3893 23.5699V12.393C43.3893 11.2697 42.9159 10.23 42.1733 9.47808C41.4213 8.72615 40.3909 8.2527 39.2584 8.2527C37.0025 8.2527 35.1274 10.1279 35.1274 12.3837V34.0784C35.313 34.7375 34.756 35.2945 34.0969 35.2945L34.0876 35.3038Z" fill="#0B93E2"/>
<path d="M11.8267 50.5188C11.1676 50.5188 10.6013 49.9526 10.6013 49.3027V43.3894C10.6013 42.7303 11.1676 42.164 11.8267 42.164C12.4858 42.164 13.0428 42.7303 13.0428 43.3894V49.3027C12.95 50.0547 12.3837 50.5188 11.8267 50.5188Z" fill="#0B93E2"/>
<path d="M34.0876 49.3863C33.4285 49.3863 32.8716 48.82 32.8716 48.1702V43.4729C32.8716 42.8138 33.4378 42.2568 34.0876 42.2568C34.7375 42.2568 35.3037 42.8231 35.3037 43.4729V48.1702C35.3037 48.8293 34.7375 49.3863 34.0876 49.3863Z" fill="#0B93E2"/>
<path d="M3.56472 41.1243C1.5967 41.1243 0 39.5276 0 37.5595C0 36.9004 0.566271 36.3434 1.21609 36.3434C1.86591 36.3434 2.43218 36.9097 2.43218 37.5595C2.43218 38.2094 2.99845 38.7849 3.65755 38.7849C4.31666 38.7849 4.87365 38.2186 4.87365 37.5595C4.87365 36.9004 5.43992 36.3434 6.08974 36.3434C6.73956 36.3434 7.30583 36.9097 7.30583 37.5595C7.12016 39.5276 5.52347 41.1243 3.54616 41.1243H3.56472Z" fill="#0B93E2"/>
<path d="M8.26199 41.1243C6.29397 41.1243 4.69727 39.5276 4.69727 37.5595C4.69727 36.9004 5.26354 36.3434 5.92264 36.3434C6.58174 36.3434 7.13873 36.9097 7.13873 37.5595C7.13873 38.2094 7.705 38.7849 8.35482 38.7849C9.00464 38.7849 9.58019 38.2186 9.58019 37.5595C9.58019 36.9004 10.1465 36.3434 10.8056 36.3434C11.4647 36.3434 12.0309 36.9097 12.0309 37.5595C11.8453 39.5276 10.2486 41.1243 8.27127 41.1243H8.26199Z" fill="#0B93E2"/>
<path d="M12.9593 41.1243C10.9912 41.1243 9.39453 39.5276 9.39453 37.5595C9.39453 36.9004 9.9608 36.3434 10.6106 36.3434C11.2604 36.3434 11.836 36.9097 11.836 37.5595C11.836 38.2094 12.4023 38.7849 13.0521 38.7849C13.7019 38.7849 14.2775 38.2186 14.2775 37.5595C14.2775 36.9004 14.8437 36.3434 15.4936 36.3434C16.1434 36.3434 16.7189 36.9097 16.7189 37.5595C16.5333 39.5276 14.9366 41.1243 12.9593 41.1243Z" fill="#0B93E2"/>
<path d="M17.6472 41.1243C15.6792 41.1243 14.0825 39.5276 14.0825 37.5595C14.0825 36.9004 14.6488 36.3434 15.3079 36.3434C15.967 36.3434 16.524 36.9097 16.524 37.5595C16.524 38.2094 17.0902 38.7849 17.74 38.7849C18.3899 38.7849 18.9654 38.2186 18.9654 37.5595C18.9654 36.9004 19.5317 36.3434 20.1815 36.3434C20.8313 36.3434 21.4069 36.9097 21.4069 37.5595C21.2212 39.5276 19.6245 41.1243 17.6472 41.1243Z" fill="#0B93E2"/>
<path d="M22.3445 41.1243C20.3765 41.1243 18.7798 39.5276 18.7798 37.5595C18.7798 36.9004 19.3461 36.3434 20.0052 36.3434C20.6643 36.3434 21.2213 36.9097 21.2213 37.5595C21.2213 38.2094 21.7875 38.7849 22.4466 38.7849C23.1057 38.7849 23.6627 38.2186 23.6627 37.5595C23.6627 36.9004 24.229 36.3434 24.8881 36.3434C25.5472 36.3434 26.1042 36.9097 26.1042 37.5595C25.9185 39.5276 24.3218 41.1243 22.3445 41.1243Z" fill="#0B93E2"/>
<path d="M27.0418 41.1243C25.0738 41.1243 23.4771 39.5276 23.4771 37.5595C23.4771 36.9004 24.0433 36.3434 24.6931 36.3434C25.343 36.3434 25.9185 36.9097 25.9185 37.5595C25.9185 38.2094 26.4848 38.7849 27.1346 38.7849C27.7844 38.7849 28.3507 38.2186 28.3507 37.5595C28.3507 36.9004 28.917 36.3434 29.5668 36.3434C30.2166 36.3434 30.7922 36.9097 30.7922 37.5595C30.6065 39.5276 29.0098 41.1243 27.0325 41.1243H27.0418Z" fill="#0B93E2"/>
<path d="M31.739 41.1243C29.771 41.1243 28.1743 39.5276 28.1743 37.5595C28.1743 36.9004 28.7406 36.3434 29.3904 36.3434C30.0402 36.3434 30.6065 36.9097 30.6065 37.5595C30.6065 38.2094 31.1728 38.7849 31.8319 38.7849C32.491 38.7849 33.048 38.2186 33.048 37.5595C33.048 36.9004 33.6142 36.3434 34.2641 36.3434C34.9139 36.3434 35.4801 36.9097 35.4801 37.5595C35.2945 39.5276 33.6978 41.1243 31.7205 41.1243H31.739Z" fill="#0B93E2"/>
<path d="M36.4363 41.1243C34.4683 41.1243 32.8716 39.5276 32.8716 37.5595C32.8716 36.9004 33.4378 36.3434 34.0876 36.3434C34.7375 36.3434 35.3037 36.9097 35.3037 37.5595C35.3037 38.2094 35.87 38.7849 36.5198 38.7849C37.1696 38.7849 37.7452 38.2186 37.7452 37.5595C37.7452 36.9004 38.3115 36.3434 38.9613 36.3434C39.6111 36.3434 40.1774 36.9097 40.1774 37.5595C39.9917 39.5276 38.395 41.1243 36.4177 41.1243H36.4363Z" fill="#0B93E2"/>
<path d="M41.1243 41.1243C39.1562 41.1243 37.5595 39.5276 37.5595 37.5595C37.5595 36.9004 38.1258 36.3434 38.7756 36.3434C39.4255 36.3434 40.001 36.9097 40.001 37.5595C40.001 38.2094 40.5673 38.7849 41.2171 38.7849C41.8669 38.7849 42.4332 38.2186 42.4332 37.5595C42.4332 36.9004 42.9995 36.3434 43.6493 36.3434C44.2991 36.3434 44.8747 36.9097 44.8747 37.5595C44.689 39.5276 43.0923 41.1243 41.115 41.1243H41.1243Z" fill="#0B93E2"/>
<path d="M34.0877 30.6065H11.836C11.1769 30.6065 10.6106 30.0403 10.6106 29.3812C10.6106 28.7221 11.1769 28.1651 11.836 28.1651H34.1898C34.8489 28.1651 35.4059 28.7313 35.4059 29.3812C35.4059 30.031 34.7468 30.6065 34.0877 30.6065Z" fill="#0B93E2"/>
<path d="M34.0877 24.6931H11.836C11.1769 24.6931 10.6106 24.1269 10.6106 23.4771C10.6106 22.8272 11.1769 22.2517 11.836 22.2517H34.1898C34.8489 22.2517 35.4059 22.818 35.4059 23.4771C35.4059 24.1362 34.7468 24.6931 34.0877 24.6931Z" fill="#0B93E2"/>
<path d="M7.12945 7.12944C5.16143 7.12944 3.56473 5.53275 3.56473 3.56472C3.56473 1.5967 5.16143 0 7.12945 0C9.09747 0 10.6942 1.5967 10.6942 3.56472C10.6942 5.53275 9.00464 7.12944 7.12945 7.12944ZM7.12945 2.43218C6.47035 2.43218 5.91336 2.99846 5.91336 3.65756C5.91336 4.31666 6.47963 4.87365 7.12945 4.87365C7.77927 4.87365 8.34554 4.30738 8.34554 3.65756C8.25271 2.90562 7.68644 2.43218 7.12945 2.43218Z" fill="#0B93E2"/>
<path d="M51.085 15.2986C49.4883 15.2986 48.1701 13.9804 48.1701 12.3837C48.1701 10.787 49.4883 9.46884 51.085 9.46884C52.6817 9.46884 54 10.787 54 12.3837C54 13.9804 52.6817 15.2986 51.085 15.2986ZM51.085 11.8267C50.8066 11.8267 50.5188 12.1052 50.5188 12.393C50.5188 12.6808 50.7973 12.9593 51.085 12.9593C51.3728 12.9593 51.6513 12.6808 51.6513 12.393C51.6513 12.1052 51.4657 11.8267 51.085 11.8267Z" fill="#0B93E2"/>
</svg>
