<svg width="58" height="55" viewBox="0 0 58 55" fill="none" xmlns="http://www.w3.org/2000/svg">
<path d="M20.6399 1.80994C25.9999 3.52994 29.0399 9.08995 27.8199 14.45L27.2099 14.3499C16.5899 8.17994 7.98991 8.07993 7.98991 8.07993H7.27991C8.89991 3.82993 12.9499 1.19995 17.3999 1.19995C18.4099 1.29995 19.5199 1.49994 20.6399 1.80994Z" fill="white"/>
<path d="M21.8599 27.2L21.7599 27.4L19.4299 34.58C17.9099 39.23 12.9599 41.76 8.29988 40.25C4.55988 39.04 2.12988 35.6 2.12988 31.85C2.12988 30.94 2.22988 30.03 2.52988 29.12L4.85988 21.94V21.64C7.48988 21.94 14.0699 22.95 21.8499 27.2H21.8599Z" fill="#C2E3F7"/>
<path d="M50.6899 20.92L50.0799 21.12C50.0799 21.12 41.4799 21.22 30.8599 27.39L30.2499 27.49C29.0399 22.13 32.0699 16.57 37.4299 14.85C38.5399 14.44 39.6599 14.34 40.7699 14.34C45.0199 14.24 49.0599 16.77 50.6799 20.92H50.6899Z" fill="#C2E3F7"/>
<path d="M55.5399 42.07C55.8399 42.98 55.94 43.89 55.94 44.8C55.94 48.54 53.51 51.98 49.77 53.2C45.12 54.72 40.16 52.19 38.64 47.53L36.31 40.35L36.21 40.15C44 35.9 50.47 34.89 53.1 34.59V34.89L55.53 42.07H55.5399Z" fill="white"/>
<path d="M51.19 22.2399C51.09 21.7299 50.89 21.3299 50.79 20.9299L50.18 21.1299C50.18 21.1299 41.58 21.2299 30.96 27.3999L30.35 27.4999C30.45 28.0099 30.65 28.51 30.75 28.92L35.3 40.7599C35.7 40.5599 36.01 40.3599 36.41 40.1499C44.2 35.8999 50.67 34.8899 53.3 34.5899C54.11 34.4899 54.51 34.4899 54.51 34.4899L51.17 22.2499L51.19 22.2399Z" fill="#C2E3F7"/>
<path d="M27.2199 14.45C16.5999 8.27995 7.99991 8.17993 7.99991 8.17993H7.2899C7.1899 8.57993 6.98991 8.88995 6.88991 9.28995L3.6499 21.5299C3.6499 21.5299 4.04991 21.5299 4.85991 21.6299C7.48991 21.8299 14.0699 22.9399 21.7499 27.1899C22.1499 27.3899 22.4599 27.5999 22.8599 27.7999L27.4099 15.9599C27.6099 15.4499 27.7099 15.0499 27.8099 14.5399L27.1999 14.4399L27.2199 14.45Z" fill="#C2E3F7"/>
<path d="M53.1793 7.6327L50.7725 8.41241L51.5522 10.8193L53.959 10.0396L53.1793 7.6327Z" fill="#0B93E2"/>
<path d="M42.49 5.94998C42.69 6.65998 42.39 7.36998 41.68 7.56998C41.58 7.56998 41.38 7.66998 41.28 7.66998C40.77 7.66998 40.27 7.36998 40.07 6.75998C40.07 6.65998 39.97 6.45998 39.97 6.34998C39.97 5.83998 40.27 5.33998 40.88 5.13998C40.98 5.13998 41.18 5.03998 41.28 5.03998C41.79 5.13998 42.29 5.43998 42.49 5.94998Z" fill="#0B93E2"/>
<path d="M40.0699 27.2C40.2699 27.91 39.9699 28.6199 39.2599 28.8199C39.1599 28.8199 38.9599 28.92 38.8599 28.92C38.3499 28.92 37.8499 28.6199 37.6499 28.0099C37.6499 27.9099 37.5499 27.7099 37.5499 27.6099C37.5499 27.0999 37.8499 26.5999 38.4599 26.3999C38.5599 26.3999 38.7599 26.2999 38.8599 26.2999C39.4699 26.2999 39.8699 26.5999 40.0699 27.2099V27.2Z" fill="#0B93E2"/>
<path d="M26.92 31.34L27.72 33.77L25.3 34.48L24.49 32.15L26.92 31.34Z" fill="#0B93E2"/>
<path d="M27.3199 43.89C27.5199 44.6 27.2199 45.31 26.5099 45.51C26.4099 45.51 26.2099 45.61 26.1099 45.61C25.5999 45.61 25.0999 45.31 24.8999 44.7C24.8999 44.6 24.7999 44.4 24.7999 44.29C24.7999 43.78 25.0999 43.28 25.7099 43.08C25.8099 43.08 26.0099 42.98 26.1099 42.98C26.6199 43.08 27.1199 43.38 27.3199 43.89Z" fill="#0B93E2"/>
<path d="M20.4399 14.65C20.4399 14.75 20.4399 14.95 20.3399 15.06C20.1399 15.57 19.6299 15.97 19.1299 15.97C19.0299 15.97 18.8299 15.97 18.7299 15.87C18.0199 15.67 17.7199 14.96 17.9199 14.25C18.1199 13.74 18.6299 13.34 19.1299 13.34C19.2299 13.34 19.4299 13.34 19.5299 13.44C20.1399 13.64 20.4399 14.15 20.4399 14.65Z" fill="#0B93E2"/>
<path d="M18.1099 51.58L18.8199 54L16.4999 54.71L15.6899 52.38L18.1099 51.58Z" fill="#0B93E2"/>
<path d="M7.08994 46.42C7.28994 47.13 6.98994 47.84 6.27994 48.04C6.17994 48.04 5.97994 48.14 5.87994 48.14C5.36994 48.14 4.86994 47.84 4.66994 47.23C4.66994 47.13 4.56995 46.93 4.56995 46.83C4.56995 46.32 4.86993 45.82 5.47993 45.62C5.57993 45.62 5.77994 45.52 5.87994 45.52C6.38994 45.62 6.88994 45.93 7.08994 46.43V46.42Z" fill="#0B93E2"/>
<path d="M22.87 29.12C22.67 29.12 22.47 29.02 22.26 28.92C21.86 28.72 21.55 28.52 21.25 28.31C13.66 24.16 7.18998 23.15 4.75998 22.95C4.04998 22.85 3.64998 22.85 3.64998 22.85C3.24998 22.85 2.93998 22.65 2.63998 22.34C2.43998 22.04 2.33999 21.63 2.43999 21.23L5.67998 8.98996C5.77998 8.57996 5.87999 8.17997 6.07999 7.77997C7.89999 3.12997 12.35 0.0899658 17.31 0.0899658C18.52 0.0899658 19.84 0.289982 21.05 0.699982C23.98 1.60998 26.41 3.62998 27.83 6.25998C29.35 8.88998 29.75 11.93 29.04 14.86C28.94 15.37 28.74 15.97 28.53 16.48L23.98 28.32C23.88 28.62 23.58 28.93 23.17 29.03C23.17 29.03 23.07 29.13 22.87 29.13V29.12ZM5.26999 20.42C7.99999 20.72 14.58 21.84 22.26 25.98L26.31 15.46C26.51 15.06 26.61 14.65 26.71 14.14C27.82 9.38998 24.99 4.42997 20.34 2.90997C19.43 2.60997 18.42 2.39996 17.41 2.39996C13.47 2.39996 9.91998 4.82997 8.50998 8.46997C8.40998 8.76997 8.30999 9.07998 8.20999 9.47998L5.27998 20.4L5.26999 20.42Z" fill="#0B93E2"/>
<path d="M27.2199 15.77C27.0199 15.77 26.8199 15.67 26.6099 15.57C16.3899 9.69998 8.09992 9.49997 7.99992 9.49997C7.28992 9.49997 6.78992 8.88996 6.78992 8.17996C6.78992 7.46996 7.39992 6.96997 7.99992 6.96997C8.39992 6.96997 17.0999 7.06997 27.8299 13.34C28.4399 13.64 28.6399 14.45 28.3399 15.06C28.1399 15.57 27.6299 15.77 27.2299 15.77H27.2199Z" fill="#0B93E2"/>
<path d="M15.59 14.86C15.49 14.86 15.39 14.86 15.19 14.76C10.13 13.24 6.78995 13.14 6.78995 13.14C6.07995 13.14 5.57996 12.53 5.57996 11.82C5.57996 11.11 6.18995 10.61 6.78995 10.61C6.88995 10.61 10.53 10.61 15.89 12.33C16.6 12.53 16.9 13.24 16.7 13.95C16.6 14.56 16.09 14.86 15.59 14.86Z" fill="#0B93E2"/>
<path d="M10.9299 42.07C9.91993 42.07 8.80993 41.87 7.78993 41.57C3.63993 40.25 0.809937 36.31 0.809937 31.96C0.809937 30.95 1.00995 29.84 1.31995 28.82L3.64993 21.64C3.84993 20.93 4.55994 20.63 5.26994 20.83C5.97994 21.03 6.27994 21.74 6.07994 22.45L3.74994 29.63C3.54994 30.44 3.34995 31.15 3.34995 31.96C3.34995 35.3 5.46994 38.13 8.60994 39.14C10.5299 39.75 12.5599 39.65 14.3799 38.64C16.1999 37.73 17.5199 36.11 18.1199 34.19L20.4499 27.01C20.6499 26.3 21.3599 26 22.0699 26.2C22.7799 26.4 23.0799 27.11 22.8799 27.82L20.5499 35C19.7399 37.53 17.9199 39.65 15.4899 40.87C14.0699 41.68 12.5599 42.08 10.9399 42.08L10.9299 42.07Z" fill="#0B93E2"/>
<path d="M35.21 41.9699C35.11 41.9699 34.91 41.9699 34.81 41.8699C34.51 41.7699 34.2 41.4699 34 41.1599L29.45 29.3299C29.25 28.8199 29.05 28.2199 28.94 27.7099C28.23 24.7799 28.74 21.7399 30.15 19.1099C31.67 16.4799 34.1 14.4599 36.93 13.5499C38.14 13.1499 39.36 12.9399 40.67 12.9399C43.1 12.9399 45.32 13.6499 47.35 14.9599C49.37 16.2799 50.89 18.2 51.8 20.42C52 20.93 52.2 21.4299 52.31 21.9399L55.55 34.1799C55.65 34.5799 55.55 34.9899 55.35 35.2899C55.15 35.5899 54.74 35.7999 54.34 35.7999C54.34 35.7999 53.94 35.7999 53.23 35.8999C50.8 36.0999 44.43 37.1099 36.74 41.2599C36.44 41.4599 36.03 41.6599 35.73 41.8699C35.63 41.9699 35.43 41.9699 35.22 41.9699H35.21ZM40.67 15.4699C39.66 15.4699 38.65 15.67 37.74 15.9799C33.09 17.4999 30.25 22.4499 31.37 27.2099C31.47 27.6199 31.57 28.0199 31.77 28.5299L35.82 39.0499C43.51 34.8999 50.08 33.7899 52.81 33.4899L49.98 22.7699C49.88 22.3699 49.78 21.9599 49.58 21.5599C48.06 17.8199 44.62 15.4899 40.68 15.4899L40.67 15.4699Z" fill="#0B93E2"/>
<path d="M30.86 28.61C30.46 28.61 29.95 28.41 29.75 28C29.45 27.39 29.65 26.58 30.26 26.28C41.08 20.01 49.78 19.91 50.09 19.91C50.8 19.91 51.3 20.52 51.3 21.12C51.3 21.83 50.79 22.44 50.09 22.44C49.99 22.44 41.59 22.64 31.48 28.51C31.28 28.61 31.08 28.61 30.87 28.61H30.86Z" fill="#0B93E2"/>
<path d="M42.49 27.7999C41.98 27.7999 41.48 27.5 41.28 26.89C41.08 26.18 41.48 25.4699 42.09 25.2699C47.45 23.6499 51.09 23.5499 51.19 23.5499C51.9 23.5499 52.4 24.1599 52.4 24.7599C52.4 25.4699 51.89 26.0799 51.19 26.0799C51.19 26.0799 47.75 26.18 42.79 27.7C42.79 27.7 42.69 27.7999 42.49 27.7999Z" fill="#0B93E2"/>
<path d="M47.1499 54.91C45.5299 54.91 44.0099 54.51 42.5999 53.8C40.1699 52.59 38.4499 50.46 37.5399 47.93L35.2099 40.75C35.0099 40.04 35.3099 39.33 36.0199 39.13C36.7299 38.93 37.4399 39.23 37.6399 39.94L39.9699 47.12C40.5799 49.04 41.8899 50.66 43.7099 51.57C45.5299 52.48 47.5499 52.68 49.4799 52.08C52.6199 51.07 54.7399 48.13 54.7399 44.9C54.7399 44.09 54.6399 43.28 54.3399 42.57L52.0099 35.39C51.8099 34.68 52.1099 33.97 52.8199 33.77C53.5299 33.57 54.2399 33.87 54.4399 34.58L56.7699 41.76C57.0699 42.77 57.2799 43.78 57.2799 44.9C57.2799 49.35 54.4499 53.19 50.2999 54.51C49.1899 54.81 48.1799 54.91 47.1599 54.91H47.1499Z" fill="#0B93E2"/>
</svg>
