<svg width="78" height="84" viewBox="0 0 78 84" fill="none" xmlns="http://www.w3.org/2000/svg">
<path d="M63.7981 23.5143C65.7541 22.8691 67.1827 25.1785 65.8668 26.9505L53.2369 44.1148L63.9304 61.6785C64.9851 63.4555 63.288 65.7335 61.3886 65.0353L42.9507 58.1188L30.3208 75.2831C29.1271 77.0016 26.5485 76.1339 26.6537 73.9744L27.9233 52.4645L9.48543 45.548C7.57467 44.8535 7.75792 41.9993 9.71387 41.3542L28.9208 35.0187L30.0767 13.5464C30.1819 11.3868 32.8202 10.5165 33.8749 12.2935L44.4547 29.8948L63.7867 23.5181L63.7981 23.5143Z" fill="white"/>
<path d="M59.6625 7.96738C59.9487 8.13548 60.2672 8.43728 60.3845 8.92363C60.5018 9.40997 60.4789 9.82444 60.1962 10.1802C60.0272 10.4985 59.59 10.774 59.2487 10.8866C58.4408 11.1531 57.5678 10.6404 57.3625 9.78932C57.2745 9.42456 57.2681 8.8885 57.5509 8.53271C57.7198 8.21446 58.0139 7.85494 58.469 7.70479C58.8397 7.71376 59.3356 7.6814 59.6541 7.98325L59.6625 7.96738Z" fill="#0B93E2"/>
<path d="M70.1054 55.542C70.3916 55.7101 70.7215 56.0082 70.8388 56.4946C70.9561 56.9809 70.9332 57.3954 70.6391 57.7549C70.4702 58.0732 70.176 58.4327 69.7208 58.5829C68.9129 58.8494 68.0399 58.3367 67.8318 57.4734C67.7438 57.1086 67.7374 56.5726 68.0315 56.213C68.2004 55.8948 68.4945 55.5353 68.9497 55.3851C69.4048 55.235 69.7869 55.2402 70.1025 55.5298L70.1054 55.542Z" fill="#0B93E2"/>
<path d="M49.9601 12.5591L48.4784 15.4689L50.9933 17.0029L52.475 14.0931L49.9601 12.5591Z" fill="#0B93E2"/>
<path d="M44.6447 69.9805L43.1625 72.89L45.6772 74.4246L47.1594 71.515L44.6447 69.9805Z" fill="#0B93E2"/>
<path d="M15.1933 19.7214L13.7112 22.6309L16.2258 24.1654L17.708 21.256L15.1933 19.7214Z" fill="#0B93E2"/>
<path d="M21.2292 68.7027L19.7475 71.6124L22.2624 73.1465L23.7441 70.2367L21.2292 68.7027Z" fill="#0B93E2"/>
<path d="M20.3816 57.5398C20.6678 57.7079 20.9863 58.0098 21.1036 58.4962C21.2209 58.9825 21.198 59.397 20.9153 59.7529C20.7463 60.0711 20.4522 60.4307 19.9971 60.5808C19.1891 60.8474 18.3274 60.3309 18.1222 59.4797C18.0342 59.1149 18.0277 58.5789 18.3105 58.2231C18.4794 57.9048 18.7736 57.5452 19.2288 57.3951C19.684 57.2449 20.066 57.2501 20.3816 57.5398Z" fill="#0B93E2"/>
<path d="M11.754 29.7193C12.0403 29.8874 12.3588 30.1893 12.4761 30.6756C12.5933 31.162 12.5704 31.5764 12.2877 31.9322C12.1188 32.2505 11.8247 32.61 11.3695 32.7601C10.5616 33.0267 9.68862 32.514 9.48336 31.6629C9.3954 31.2981 9.38899 30.762 9.67172 30.4062C9.84066 30.088 10.1347 29.7285 10.5899 29.5783C11.0451 29.4282 11.4272 29.4334 11.7427 29.7231L11.754 29.7193Z" fill="#0B93E2"/>
<path d="M63.033 66.637C62.3392 66.8658 61.5982 66.8479 60.898 66.5411L43.4411 60.0862L31.4705 76.3792C31.0077 77.0566 30.3869 77.5369 29.6931 77.7657C28.5444 78.1446 27.36 77.8663 26.5748 77.207C25.6436 76.4516 25.2632 75.3833 25.3197 74.0397L26.515 53.7449L9.02881 47.1686C7.52899 46.6007 6.67877 45.1627 6.78752 43.5264C6.89921 41.9022 7.89497 40.38 9.38486 39.8885L27.5593 33.8935L28.6408 13.6362C28.7118 11.8943 29.7483 10.4899 31.2382 9.9984C32.728 9.50694 34.2393 10.071 35.0781 11.5128L45.0514 28.1235L63.2259 22.1285C64.7271 21.6333 66.227 22.2011 67.0658 23.6429C67.8754 24.9632 67.8366 26.8388 66.7823 28.118L54.8117 44.4109L64.8987 60.9841C65.5066 61.9774 65.6889 63.2422 65.2439 64.4516C65.1108 65.4269 64.1931 66.2543 63.033 66.637ZM42.6117 56.6473C42.9529 56.5348 43.2097 56.5813 43.4778 56.624L61.918 63.5416C62.0611 63.6256 62.1749 63.588 62.2886 63.5505C62.4023 63.513 62.6004 63.3165 62.6849 63.1574C62.7693 62.9984 62.74 62.8769 62.6785 62.6217L51.9835 45.0552C51.6066 44.5105 51.6582 43.7064 52.1474 43.1384L64.7789 25.9715C64.9478 25.6534 64.8892 25.4104 64.8569 25.2767C64.8247 25.143 64.5415 24.9872 64.2003 25.0997L44.9909 31.4362C44.4222 31.6238 43.7542 31.4506 43.348 30.7843L32.7668 13.1804C32.5652 12.8534 32.3377 12.9284 32.1102 13.0034C31.8828 13.0784 31.6439 13.1572 31.6181 13.5593L30.4944 35.1686C30.4164 35.8633 30.0673 36.5032 29.3849 36.7283L10.1754 43.0647C9.83421 43.1773 9.76772 43.4616 9.68329 43.6206C9.59886 43.7797 9.6868 44.1442 10.0602 44.1654L28.5005 51.0829C29.0547 51.2936 29.461 51.9598 29.4967 52.6171L28.1977 74.0087C28.1425 74.2892 28.2855 74.3732 28.4315 74.4694C28.5746 74.5534 28.8314 74.5998 28.9565 74.5586C29.0816 74.5173 29.1839 74.4835 29.2684 74.3245L41.8999 57.1576C42.0687 56.8395 42.3076 56.7608 42.6488 56.6482L42.6117 56.6473Z" fill="#0B93E2"/>
<path d="M40.5611 48.157C39.7171 48.4281 38.8054 47.9056 38.5913 47.0388L32.4656 22.2359C32.2484 21.3567 32.787 20.3685 33.631 20.0974C34.475 19.8264 35.3747 20.3527 35.5919 21.2319L41.7176 46.0348C41.9348 46.914 41.3932 47.8898 40.5611 48.157Z" fill="#0B93E2"/>
<path d="M46.4232 40.1C45.8479 40.2886 45.1968 40.1141 44.7939 39.4573C44.362 38.6807 44.4941 37.7192 45.2369 37.2171L55.3901 29.8284C56.1328 29.3263 57.0209 29.4232 57.4528 30.1998C57.8847 30.9764 57.7526 31.9379 57.0098 32.44L46.8566 39.8287C46.6601 40.0224 46.5473 40.0594 46.4345 40.0963L46.4232 40.1Z" fill="#0B93E2"/>
<path d="M55.3933 58.1641C54.9365 58.3148 54.4095 58.2252 54.0928 57.9345L44.7184 50.0934C44.0821 49.4998 43.9903 48.608 44.5548 47.8817C45.1338 47.1638 45.974 47.0184 46.6073 47.5998L55.9788 55.4286C56.6265 56.0185 56.7098 56.9263 56.1423 57.6404C55.9434 57.8377 55.6188 58.0766 55.3904 58.1519L55.3933 58.1641Z" fill="#0B93E2"/>
<path d="M32.6014 65.2762C32.2588 65.3892 31.9896 65.3463 31.7317 65.2996C30.9145 65.0291 30.5648 64.0906 30.8829 63.3139L35.3753 50.9119C35.664 50.0131 36.5482 49.5897 37.2513 49.8978C38.0656 50.1561 38.4181 51.1068 38.1 51.8835L33.6076 64.2856C33.3533 64.7647 32.9469 65.1754 32.6043 65.2884L32.6014 65.2762Z" fill="#0B93E2"/>
<path d="M31.9526 44.4563C31.8398 44.4933 31.6141 44.5673 31.4723 44.4845L19.4634 44.2301C18.6043 44.2531 18.0595 43.5131 18.0788 42.5883C18.0981 41.6634 18.8119 41.0413 19.6711 41.0184L31.6799 41.2727C32.539 41.2498 33.0838 41.9897 33.0645 42.9146C33.0161 43.7196 32.528 44.2677 31.9639 44.4526L31.9526 44.4563Z" fill="#0B93E2"/>
</svg>
