<svg width="28" height="28" viewBox="0 0 28 28" fill="none" xmlns="http://www.w3.org/2000/svg">
<path fill-rule="evenodd" clip-rule="evenodd" d="M14 0C21.7323 0 28 6.26773 28 14C28 21.7323 21.7323 28 14 28C6.26773 28 0 21.7323 0 14C0 6.26773 6.26773 0 14 0Z" fill="url(#paint0_linear_75_1294)"/>
<path d="M20.3011 8.94194L18.3077 18.9908C18.3077 18.9908 18.0288 19.6875 17.2626 19.3534L12.6634 15.8271L12.6421 15.8167C13.2634 15.2589 18.0808 10.9276 18.2913 10.7313C18.6173 10.4273 18.4149 10.2462 18.0365 10.4759L10.9205 14.9948L8.17523 14.0711C8.17523 14.0711 7.74319 13.9174 7.70163 13.5833C7.65952 13.2486 8.18944 13.0676 8.18944 13.0676L19.3812 8.67726C19.3812 8.67726 20.3011 8.27312 20.3011 8.94194Z" fill="#FEFEFE"/>
<defs>
<linearGradient id="paint0_linear_75_1294" x1="3.70945" y1="4.50734" x2="25.9323" y2="21.327" gradientUnits="userSpaceOnUse">
<stop stop-color="#28AAE0"/>
<stop offset="1" stop-color="#23B7EC"/>
</linearGradient>
</defs>
</svg>
