<svg width="28" height="28" viewBox="0 0 28 28" fill="none" xmlns="http://www.w3.org/2000/svg">
<g clip-path="url(#clip0_75_1287)">
<path fill-rule="evenodd" clip-rule="evenodd" d="M14 0C21.7323 0 28 6.26773 28 14C28 21.7323 21.7323 28 14 28C6.26773 28 0 21.7323 0 14C0 6.26773 6.26773 0 14 0Z" fill="url(#paint0_linear_75_1287)"/>
<path fill-rule="evenodd" clip-rule="evenodd" d="M14 20.4433C12.8598 20.4433 11.7376 20.1398 10.7559 19.5661C10.5979 19.4737 10.4076 19.4491 10.2309 19.4972L8.09649 20.0829L8.84024 18.445C8.94141 18.2224 8.91516 17.9627 8.77243 17.7641C7.97672 16.6622 7.55672 15.3601 7.55672 14C7.55672 10.447 10.447 7.55672 14 7.55672C17.5531 7.55672 20.4433 10.447 20.4433 14C20.4433 17.553 17.5531 20.4433 14 20.4433ZM14 6.19281C9.69501 6.19281 6.19336 9.695 6.19336 14C6.19336 15.5143 6.62266 16.9684 7.44024 18.2306L6.25407 20.843C6.14469 21.0842 6.18462 21.3664 6.35579 21.5677C6.48758 21.7213 6.67844 21.8072 6.87477 21.8072C7.31446 21.8072 9.71251 21.0536 10.3228 20.8857C11.451 21.4895 12.7159 21.8072 14 21.8072C18.3045 21.8072 21.8072 18.3045 21.8072 14C21.8072 9.695 18.3045 6.19336 14 6.19281Z" fill="white"/>
<path fill-rule="evenodd" clip-rule="evenodd" d="M15.8637 14.9127C15.5684 15.0336 15.3798 15.4962 15.1883 15.7325C15.0899 15.8533 14.9729 15.8725 14.8219 15.8118C13.7129 15.3699 12.8625 14.6294 12.2505 13.609C12.1466 13.4509 12.1652 13.3257 12.2905 13.1786C12.4753 12.9609 12.7077 12.7137 12.7575 12.4201C12.8685 11.7715 12.0203 9.75843 10.8998 10.6706C7.67593 13.2978 16.2777 20.2655 17.8303 16.497C18.2694 15.4284 16.3537 14.712 15.8637 14.9127Z" fill="white"/>
</g>
<defs>
<linearGradient id="paint0_linear_75_1287" x1="3.70945" y1="4.50734" x2="25.9323" y2="21.327" gradientUnits="userSpaceOnUse">
<stop stop-color="#39AE41"/>
<stop offset="1" stop-color="#80C269"/>
</linearGradient>
<clipPath id="clip0_75_1287">
<rect width="28" height="28" fill="white"/>
</clipPath>
</defs>
</svg>
